# Blender v2.75 (sub 0) OBJ File: 'MyEditedCar.blend'
# www.blender.org
mtllib Car.mtl
o Cube
v 0.829920 0.243609 -2.000000
v 0.829920 0.243609 1.964882
v 0.829921 0.716239 -2.000000
v 0.829920 0.716239 1.964883
v 0.829920 0.243609 -1.008779
v 0.829921 0.716239 -1.008779
v 0.829920 0.243609 1.004318
v 0.829920 0.716239 1.004318
v 0.826767 1.183321 -0.630833
v 0.826766 1.183321 0.626372
v 0.793773 0.736544 0.987888
v 0.790714 1.162915 0.642884
v 0.783419 0.742360 -0.987642
v 0.780387 1.157069 -0.652075
v 0.793773 0.708376 0.953077
v 0.790714 1.134747 0.608073
v 0.783419 0.710637 -0.948438
v 0.780387 1.125346 -0.612871
v 0.829920 0.243609 1.850757
v 0.829920 0.716239 1.850758
v 0.829921 0.616257 -2.000000
v 0.829920 0.616257 1.964883
v 0.829921 0.616257 -1.008779
v 0.829920 0.616257 1.004318
v 0.829920 0.616257 1.850758
v 0.829920 0.243609 0.036535
v 0.829920 0.716239 0.036535
v 0.826766 1.183321 0.023515
v 0.829920 0.616257 0.036535
v 0.829920 0.616257 -0.044334
v 0.829920 0.243609 -0.044334
v 0.829920 0.716239 -0.044334
v 0.826766 1.183321 -0.026989
v 0.829729 0.744529 0.083312
v 0.829783 0.736608 0.953588
v 0.826953 1.155715 0.070699
v 0.827044 1.142123 0.590440
v 0.800757 0.744529 0.083312
v 0.800810 0.736608 0.953588
v 0.797981 1.155715 0.070699
v 0.798072 1.142123 0.590440
v 0.826961 1.154579 -0.605837
v 0.829825 0.730444 -0.973436
v 0.829787 0.736054 -0.076865
v 0.826896 1.164142 -0.059899
v 0.787191 1.154579 -0.605837
v 0.790055 0.730444 -0.973436
v 0.790017 0.736054 -0.076865
v 0.787126 1.164142 -0.059899
v 0.414960 0.243609 -2.000000
v 0.414960 0.243609 1.964882
v 0.414960 0.716239 -2.000000
v 0.414960 0.716239 1.964882
v 0.414960 0.716239 -1.008779
v 0.414960 0.243609 -1.008780
v 0.414960 0.716239 1.004318
v 0.414960 0.243609 1.004318
v 0.413383 1.183321 -0.630833
v 0.413383 1.183321 0.626372
v 0.396886 0.736569 0.987867
v 0.395357 1.162940 0.642864
v 0.391710 0.742393 -0.987616
v 0.390194 1.157102 -0.652049
v 0.396886 0.708401 0.953056
v 0.395357 1.134772 0.608052
v 0.391710 0.710670 -0.948412
v 0.390194 1.125379 -0.612844
v 0.414960 0.716239 1.850757
v 0.414960 0.243609 1.850757
v 0.414960 0.616257 1.964882
v 0.414960 0.616257 -2.000000
v 0.413383 1.183321 0.023515
v 0.414960 0.243609 0.036535
v 0.414960 0.243609 -0.044334
v 0.413383 1.183321 -0.026989
v 0.829921 0.523095 -1.008779
v 0.829920 0.523095 1.004318
v 0.829920 0.523095 1.850758
v 0.829921 0.523095 -2.000000
v 0.829920 0.523095 1.964882
v 0.829920 0.523095 0.036535
v 0.829920 0.523095 -0.044334
v 0.414960 0.523095 1.964882
v 0.414960 0.523095 -2.000000
v 0.800657 0.616578 -2.000000
v 0.803445 0.703770 -2.000000
v 0.803333 0.535325 -2.000000
v 0.441437 0.703770 -2.000000
v 0.444224 0.616578 -2.000000
v 0.441548 0.535325 -2.000000
v 0.800657 0.616578 -1.963745
v 0.803445 0.703770 -1.963745
v 0.803333 0.535325 -1.963745
v 0.441437 0.703770 -1.963745
v 0.444224 0.616578 -1.963745
v 0.441548 0.535325 -1.963745
v 0.803891 0.616543 1.964883
v 0.806370 0.705148 1.964883
v 0.806271 0.533973 1.964882
v 0.438510 0.705148 1.964882
v 0.440989 0.616543 1.964882
v 0.438609 0.533973 1.964882
v 0.803891 0.616543 1.924825
v 0.806370 0.705148 1.924825
v 0.806271 0.533973 1.924825
v 0.438510 0.705148 1.924825
v 0.440989 0.616543 1.924825
v 0.438609 0.533973 1.924825
v 0.837956 0.236928 1.201945
v 0.837956 0.236928 1.653129
v 0.838464 0.722110 1.201587
v 0.838463 0.722110 1.653489
v 0.839482 0.619757 1.654209
v 0.839482 0.619757 1.200867
v 0.411286 0.234444 1.655241
v 0.411286 0.234444 1.199834
v 0.410807 0.724801 1.656256
v 0.410807 0.724801 1.198820
v 0.839981 0.523766 1.654561
v 0.839981 0.523766 1.200515
v -0.829920 0.243609 -2.000000
v -0.829920 0.243609 1.964882
v -0.829921 0.716239 -2.000000
v -0.829920 0.716239 1.964883
v 0.000000 0.243609 -2.000000
v 0.000000 0.243609 1.964882
v 0.000000 0.716239 -2.000000
v 0.000000 0.716239 1.964882
v -0.829920 0.243609 -1.008779
v -0.829921 0.716239 -1.008779
v 0.000000 0.716239 -1.008779
v 0.000000 0.243609 -1.008780
v -0.829920 0.243609 1.004318
v -0.829920 0.716239 1.004318
v 0.000000 0.716239 1.004318
v 0.000000 0.243609 1.004318
v 0.000000 1.183321 -0.630833
v -0.826767 1.183321 -0.630833
v -0.826766 1.183321 0.626372
v 0.000000 1.183321 0.626372
v 0.000000 0.736594 0.987847
v -0.793773 0.736544 0.987888
v 0.000000 1.162966 0.642843
v -0.790714 1.162915 0.642884
v 0.000000 0.742425 -0.987590
v -0.783419 0.742360 -0.987642
v 0.000000 1.157135 -0.652022
v -0.780387 1.157069 -0.652075
v 0.000000 0.708427 0.953036
v -0.793773 0.708376 0.953077
v 0.000000 1.134798 0.608032
v -0.790714 1.134747 0.608073
v 0.000000 0.710703 -0.948386
v -0.783419 0.710637 -0.948438
v 0.000000 1.125412 -0.612818
v -0.780387 1.125346 -0.612871
v -0.829920 0.243609 1.850757
v -0.829920 0.716239 1.850758
v 0.000000 0.716239 1.850757
v 0.000000 0.243609 1.850757
v -0.829921 0.616257 -2.000000
v -0.829920 0.616257 1.964883
v 0.000000 0.616257 -2.000000
v 0.000000 0.616257 1.964882
v -0.829921 0.616257 -1.008779
v -0.829920 0.616257 1.004318
v -0.829920 0.616257 1.850758
v 0.000000 0.243609 0.036535
v -0.829920 0.243609 0.036535
v -0.829920 0.716239 0.036535
v -0.826766 1.183321 0.023515
v 0.000000 1.183321 0.023515
v -0.829920 0.616257 0.036535
v 0.000000 0.243609 -0.044334
v -0.829920 0.616257 -0.044334
v -0.829920 0.243609 -0.044334
v -0.829920 0.716239 -0.044334
v -0.826766 1.183321 -0.026989
v 0.000000 1.183321 -0.026989
v -0.829729 0.744529 0.083312
v -0.829783 0.736608 0.953588
v -0.826953 1.155715 0.070699
v -0.827044 1.142123 0.590440
v -0.800757 0.744529 0.083312
v -0.800810 0.736608 0.953588
v -0.797981 1.155715 0.070699
v -0.798072 1.142123 0.590440
v -0.826961 1.154579 -0.605837
v -0.829825 0.730444 -0.973436
v -0.829787 0.736054 -0.076865
v -0.826896 1.164142 -0.059899
v -0.787191 1.154579 -0.605837
v -0.790055 0.730444 -0.973436
v -0.790017 0.736054 -0.076865
v -0.787126 1.164142 -0.059899
v -0.414960 0.243609 -2.000000
v -0.414960 0.243609 1.964882
v -0.414960 0.716239 -2.000000
v -0.414960 0.716239 1.964882
v -0.414960 0.716239 -1.008779
v -0.414960 0.243609 -1.008780
v -0.414960 0.716239 1.004318
v -0.414960 0.243609 1.004318
v -0.413383 1.183321 -0.630833
v -0.413383 1.183321 0.626372
v -0.396886 0.736569 0.987867
v -0.395357 1.162940 0.642864
v -0.391710 0.742393 -0.987616
v -0.390194 1.157102 -0.652049
v -0.396886 0.708401 0.953056
v -0.395357 1.134772 0.608052
v -0.391710 0.710670 -0.948412
v -0.390194 1.125379 -0.612844
v -0.414960 0.716239 1.850757
v -0.414960 0.243609 1.850757
v -0.414960 0.616257 1.964882
v -0.414960 0.616257 -2.000000
v -0.413383 1.183321 0.023515
v -0.414960 0.243609 0.036535
v -0.414960 0.243609 -0.044334
v -0.413383 1.183321 -0.026989
v 0.000000 0.523095 1.964882
v -0.829921 0.523095 -1.008779
v -0.829920 0.523095 1.004318
v -0.829920 0.523095 1.850758
v -0.829921 0.523095 -2.000000
v -0.829920 0.523095 1.964882
v 0.000000 0.523095 -2.000000
v -0.829920 0.523095 0.036535
v -0.829920 0.523095 -0.044334
v -0.414960 0.523095 1.964882
v -0.414960 0.523095 -2.000000
v -0.800657 0.616578 -2.000000
v -0.803445 0.703770 -2.000000
v -0.803333 0.535325 -2.000000
v -0.441437 0.703770 -2.000000
v -0.444224 0.616578 -2.000000
v -0.441548 0.535325 -2.000000
v -0.800657 0.616578 -1.963745
v -0.803445 0.703770 -1.963745
v -0.803333 0.535325 -1.963745
v -0.441437 0.703770 -1.963745
v -0.444224 0.616578 -1.963745
v -0.441548 0.535325 -1.963745
v -0.803891 0.616543 1.964883
v -0.806370 0.705148 1.964883
v -0.806271 0.533973 1.964882
v -0.438510 0.705148 1.964882
v -0.440989 0.616543 1.964882
v -0.438609 0.533973 1.964882
v -0.803891 0.616543 1.924825
v -0.806370 0.705148 1.924825
v -0.806271 0.533973 1.924825
v -0.438510 0.705148 1.924825
v -0.440989 0.616543 1.924825
v -0.438609 0.533973 1.924825
v 0.000000 0.238809 1.651530
v 0.000000 0.238809 1.203544
v -0.837956 0.236928 1.201945
v -0.837956 0.236928 1.653129
v -0.838464 0.722110 1.201587
v -0.838463 0.722110 1.653489
v 0.000000 0.720330 1.203417
v 0.000000 0.720330 1.651658
v -0.839482 0.619757 1.654209
v -0.839482 0.619757 1.200867
v -0.411286 0.234444 1.655241
v -0.411286 0.234444 1.199834
v -0.410807 0.724801 1.656256
v -0.410807 0.724801 1.198820
v -0.839981 0.523766 1.654561
v -0.839981 0.523766 1.200515
vn 0.000000 0.000000 -1.000000
vn -0.000000 0.000000 1.000000
vn 0.000000 -1.000000 0.000000
vn 1.000000 0.000000 0.000000
vn 0.000000 1.000000 0.000000
vn 0.000000 0.629000 -0.777400
vn 0.000000 0.629000 0.777400
vn 1.000000 0.006700 0.000000
vn -0.000100 -0.777400 0.629000
vn 0.000100 0.777400 0.629000
vn -1.000000 -0.004300 0.003500
vn 0.000100 0.777400 -0.629000
vn -1.000000 -0.004400 -0.003600
vn -0.000100 -0.777400 -0.629000
vn -0.000000 0.999000 0.044000
vn 0.998700 0.000000 0.051200
vn 0.000000 -0.998900 0.046800
vn 0.998800 0.000000 0.048600
vn 1.000000 0.006800 0.000000
vn 0.000000 0.030700 0.999500
vn 0.000000 -0.999700 -0.026100
vn 0.000000 -0.667100 -0.744900
vn 0.000000 1.000000 0.009100
vn 0.000000 0.039600 -0.999200
vn 0.000000 1.000000 -0.006300
vn 0.000000 -0.999800 0.017500
vn 0.000000 -0.654900 0.755700
vn 0.999500 0.031900 0.000000
vn -0.999500 0.032000 0.000000
vn 0.999500 -0.032900 0.000000
vn -0.999500 -0.032900 0.000000
vn -0.999600 0.028000 0.000000
vn 0.999600 -0.028800 0.000000
vn -0.999600 -0.028800 0.000000
vn 0.999600 0.028000 0.000000
vn 0.998800 0.005400 -0.048700
vn 1.000000 0.005200 0.000000
vn -0.011100 0.999700 -0.020500
vn -0.010900 0.999900 0.000000
vn 0.006000 -0.999400 -0.034000
vn 0.005800 -1.000000 0.000000
vn 0.999000 0.010200 -0.043600
vn 1.000000 0.009900 0.000000
vn -0.010800 -0.999700 -0.024100
vn -0.010600 -0.999900 0.000000
vn 0.999100 -0.007300 -0.040900
vn 1.000000 -0.007100 0.000000
vn 0.006500 0.999500 -0.030000
vn 0.006300 1.000000 0.000000
vn -1.000000 0.000000 0.000000
vn -1.000000 0.006800 0.000000
vn 0.000100 -0.777400 0.629000
vn -0.000100 0.777400 0.629000
vn 1.000000 -0.004300 0.003500
vn -0.000100 0.777400 -0.629000
vn 1.000000 -0.004400 -0.003600
vn 0.000100 -0.777400 -0.629000
vn -0.006500 0.999500 0.030000
vn -0.999100 -0.007300 0.040900
vn 0.010800 -0.999700 0.024100
vn -0.998800 0.000000 0.048600
vn -1.000000 0.006700 0.000000
vn -0.998700 0.000000 0.051200
vn -0.999500 0.031900 0.000000
vn 0.999500 0.032000 0.000000
vn -0.998700 0.000000 -0.051200
vn -1.000000 0.005200 0.000000
vn -0.000000 0.999000 -0.044000
vn 0.010900 0.999900 0.000000
vn 0.000000 -0.998900 -0.046800
vn -0.005800 -1.000000 0.000000
vn -0.998800 0.000000 -0.048600
vn -1.000000 0.009900 0.000000
vn 0.010800 -0.999700 -0.024100
vn 0.010600 -0.999900 0.000000
vn -0.999100 -0.007300 -0.040900
vn -1.000000 -0.007100 0.000000
vn -0.006500 0.999500 -0.030000
vn -0.006300 1.000000 0.000000
vn 0.006500 0.999500 0.030000
vn 0.999100 -0.007300 0.040900
vn -0.010800 -0.999700 0.024100
vn 0.999000 0.010200 0.043600
vn 0.006000 -0.999400 0.034000
vn -0.011100 0.999700 0.020500
vn 0.998800 0.005400 0.048700
vn 0.998700 0.000000 -0.051200
vn 0.998800 0.000000 -0.048600
vn -0.999000 0.010200 0.043600
vn -0.006000 -0.999400 0.034000
vn 0.011100 0.999700 0.020500
vn -0.998800 0.005400 0.048700
vn -0.998800 0.005400 -0.048700
vn 0.011100 0.999700 -0.020500
vn -0.006000 -0.999400 -0.034000
vn -0.999000 0.010200 -0.043600
usemtl Body
s off
f 50//1 125//1 228//1
f 53//2 128//2 164//2
f 69//3 51//3 126//3
f 78//4 80//4 2//4
f 53//5 4//5 20//5
f 54//5 6//5 3//5
f 79//4 76//4 5//4
f 55//3 132//3 125//3
f 131//6 145//6 62//6
f 81//4 77//4 7//4
f 57//3 136//3 168//3
f 72//5 59//5 10//5
f 10//7 12//7 11//7
f 32//8 6//8 43//8
f 61//9 143//9 151//9
f 140//7 143//7 61//7
f 56//7 8//7 11//7
f 62//10 145//10 153//10
f 58//6 9//6 14//6
f 9//6 6//6 13//6
f 11//11 12//11 16//11
f 11//12 15//12 64//12
f 13//13 17//13 18//13
f 14//14 18//14 67//14
f 117//15 68//15 20//15
f 119//16 78//16 19//16
f 115//17 69//17 160//17
f 20//18 25//18 113//18
f 27//4 8//4 24//4
f 6//4 23//4 21//4
f 4//4 22//4 25//4
f 70//2 164//2 222//2
f 71//1 163//1 127//1
f 32//4 27//4 29//4
f 10//8 37//8 36//8
f 72//5 28//5 33//5
f 73//3 168//3 174//3
f 81//4 26//4 31//4
f 76//4 82//4 31//4
f 74//3 174//3 132//3
f 75//5 33//5 9//5
f 6//4 32//4 30//4
f 27//19 32//19 33//19
f 36//20 40//20 38//20
f 27//19 28//19 36//19
f 27//19 34//19 35//19
f 10//19 8//19 35//19
f 36//21 37//21 41//21
f 37//22 35//22 39//22
f 34//23 38//23 39//23
f 45//24 44//24 48//24
f 32//19 44//19 45//19
f 9//8 42//8 43//8
f 9//19 33//19 45//19
f 44//25 43//25 47//25
f 45//26 49//26 46//26
f 42//27 46//27 47//27
f 179//5 75//5 58//5
f 5//3 31//3 74//3
f 26//3 73//3 74//3
f 172//5 72//5 75//5
f 21//1 79//1 87//1
f 80//2 99//2 102//2
f 19//17 69//17 115//17
f 159//15 68//15 117//15
f 63//14 67//14 155//14
f 60//12 64//12 149//12
f 137//6 58//6 63//6
f 62//10 66//10 17//10
f 135//7 56//7 60//7
f 59//7 61//7 12//7
f 61//9 65//9 16//9
f 172//5 140//5 59//5
f 7//3 57//3 73//3
f 54//6 62//6 13//6
f 1//3 5//3 55//3
f 131//5 54//5 52//5
f 128//5 53//5 68//5
f 19//3 2//3 51//3
f 22//2 97//2 99//2
f 1//1 50//1 84//1
f 71//1 89//1 90//1
f 80//2 83//2 51//2
f 30//4 82//4 76//4
f 30//4 29//4 81//4
f 83//2 222//2 126//2
f 25//16 78//16 119//16
f 24//4 77//4 81//4
f 23//4 76//4 79//4
f 25//4 22//4 80//4
f 84//1 228//1 163//1
f 86//3 92//3 94//3
f 88//28 94//28 95//28
f 79//1 84//1 90//1
f 21//1 85//1 86//1
f 71//1 52//1 88//1
f 52//1 3//1 86//1
f 85//29 91//29 92//29
f 89//30 95//30 96//30
f 85//31 87//31 93//31
f 87//5 90//5 96//5
f 98//32 104//32 103//32
f 100//3 106//3 104//3
f 22//2 4//2 98//2
f 53//2 100//2 98//2
f 70//2 83//2 102//2
f 70//2 101//2 100//2
f 102//33 108//33 107//33
f 99//34 97//34 103//34
f 99//5 105//5 108//5
f 101//35 107//35 106//35
f 24//36 114//36 120//36
f 114//37 113//37 119//37
f 135//38 263//38 118//38
f 264//39 117//39 118//39
f 7//40 109//40 116//40
f 110//41 115//41 116//41
f 8//42 111//42 114//42
f 112//43 113//43 114//43
f 116//44 258//44 136//44
f 116//45 115//45 257//45
f 120//46 109//46 7//46
f 120//47 119//47 110//47
f 118//48 111//48 8//48
f 117//49 112//49 111//49
f 228//1 125//1 196//1
f 164//2 128//2 199//2
f 215//3 160//3 126//3
f 225//50 157//50 122//50
f 158//5 124//5 199//5
f 123//5 130//5 200//5
f 226//50 121//50 129//50
f 125//3 132//3 201//3
f 208//6 145//6 131//6
f 229//50 169//50 133//50
f 168//3 136//3 203//3
f 218//5 171//5 139//5
f 142//7 144//7 139//7
f 177//51 190//51 189//51
f 211//52 151//52 143//52
f 207//7 143//7 140//7
f 202//7 206//7 142//7
f 208//53 212//53 153//53
f 204//6 209//6 148//6
f 138//6 148//6 146//6
f 150//54 152//54 144//54
f 210//55 150//55 142//55
f 156//56 154//56 146//56
f 213//57 156//57 148//57
f 269//58 262//58 158//58
f 271//59 260//59 157//59
f 267//60 257//60 160//60
f 265//61 167//61 158//61
f 170//50 173//50 166//50
f 161//50 165//50 130//50
f 167//50 162//50 124//50
f 222//2 164//2 216//2
f 127//1 163//1 217//1
f 177//50 175//50 173//50
f 182//62 183//62 139//62
f 178//5 171//5 218//5
f 174//3 168//3 219//3
f 176//50 169//50 229//50
f 223//50 129//50 176//50
f 132//3 174//3 220//3
f 204//5 138//5 178//5
f 130//50 165//50 175//50
f 170//51 171//51 178//51
f 184//20 186//20 182//20
f 170//51 180//51 182//51
f 181//51 180//51 170//51
f 139//51 183//51 181//51
f 182//21 186//21 187//21
f 183//22 187//22 185//22
f 185//23 184//23 180//23
f 191//24 195//24 194//24
f 191//51 190//51 177//51
f 189//51 188//51 138//51
f 138//51 188//51 191//51
f 190//25 194//25 193//25
f 192//26 195//26 191//26
f 193//27 192//27 188//27
f 204//5 221//5 179//5
f 129//3 201//3 220//3
f 220//3 219//3 169//3
f 221//5 218//5 172//5
f 161//1 233//1 235//1
f 250//2 247//2 227//2
f 267//17 215//17 157//17
f 269//15 214//15 159//15
f 155//57 213//57 209//57
f 149//55 210//55 206//55
f 137//6 147//6 209//6
f 154//53 212//53 208//53
f 135//7 141//7 206//7
f 144//7 207//7 205//7
f 152//52 211//52 207//52
f 172//5 218//5 205//5
f 219//3 203//3 133//3
f 146//6 208//6 200//6
f 121//3 196//3 201//3
f 198//5 200//5 131//5
f 214//5 199//5 128//5
f 157//3 215//3 197//3
f 247//2 245//2 162//2
f 232//1 196//1 121//1
f 238//1 237//1 217//1
f 197//2 231//2 227//2
f 223//50 230//50 175//50
f 175//50 230//50 229//50
f 126//2 222//2 231//2
f 271//63 225//63 167//63
f 229//50 224//50 166//50
f 226//50 223//50 165//50
f 167//50 225//50 227//50
f 163//1 228//1 232//1
f 242//3 240//3 234//3
f 243//64 242//64 236//64
f 235//1 238//1 232//1
f 234//1 233//1 161//1
f 217//1 237//1 236//1
f 198//1 236//1 234//1
f 240//65 239//65 233//65
f 244//31 243//31 237//31
f 233//30 239//30 241//30
f 235//5 241//5 244//5
f 251//35 252//35 246//35
f 252//3 254//3 248//3
f 162//2 245//2 246//2
f 246//2 248//2 199//2
f 216//2 249//2 250//2
f 248//2 249//2 216//2
f 255//34 256//34 250//34
f 247//33 253//33 251//33
f 256//5 253//5 247//5
f 254//32 255//32 249//32
f 166//66 224//66 272//66
f 266//67 272//67 271//67
f 135//68 202//68 270//68
f 270//69 269//69 264//69
f 133//70 203//70 268//70
f 268//71 267//71 260//71
f 134//72 166//72 266//72
f 266//73 265//73 262//73
f 136//74 258//74 268//74
f 268//75 258//75 257//75
f 133//76 259//76 272//76
f 272//77 259//77 260//77
f 134//78 261//78 270//78
f 261//79 262//79 269//79
f 84//1 50//1 228//1
f 70//2 53//2 164//2
f 160//3 69//3 126//3
f 19//4 78//4 2//4
f 68//5 53//5 20//5
f 52//5 54//5 3//5
f 1//4 79//4 5//4
f 50//3 55//3 125//3
f 54//6 131//6 62//6
f 26//4 81//4 7//4
f 73//3 57//3 168//3
f 28//5 72//5 10//5
f 8//7 10//7 11//7
f 44//19 32//19 43//19
f 65//9 61//9 151//9
f 59//7 140//7 61//7
f 60//7 56//7 11//7
f 66//10 62//10 153//10
f 63//6 58//6 14//6
f 14//6 9//6 13//6
f 15//11 11//11 16//11
f 60//12 11//12 64//12
f 14//13 13//13 18//13
f 63//14 14//14 67//14
f 112//80 117//80 20//80
f 110//81 119//81 19//81
f 257//82 115//82 160//82
f 112//83 20//83 113//83
f 29//4 27//4 24//4
f 3//4 6//4 21//4
f 20//4 4//4 25//4
f 83//2 70//2 222//2
f 52//1 71//1 127//1
f 30//4 32//4 29//4
f 28//8 10//8 36//8
f 75//5 72//5 33//5
f 74//3 73//3 174//3
f 82//4 81//4 31//4
f 5//4 76//4 31//4
f 55//3 74//3 132//3
f 58//5 75//5 9//5
f 23//4 6//4 30//4
f 28//19 27//19 33//19
f 34//20 36//20 38//20
f 34//19 27//19 36//19
f 8//8 27//8 35//8
f 37//19 10//19 35//19
f 40//21 36//21 41//21
f 41//22 37//22 39//22
f 35//23 34//23 39//23
f 49//24 45//24 48//24
f 33//19 32//19 45//19
f 6//19 9//19 43//19
f 42//19 9//19 45//19
f 48//25 44//25 47//25
f 42//26 45//26 46//26
f 43//27 42//27 47//27
f 137//5 179//5 58//5
f 55//3 5//3 74//3
f 31//3 26//3 74//3
f 179//5 172//5 75//5
f 85//1 21//1 87//1
f 83//2 80//2 102//2
f 110//84 19//84 115//84
f 264//85 159//85 117//85
f 147//14 63//14 155//14
f 141//12 60//12 149//12
f 147//6 137//6 63//6
f 13//10 62//10 17//10
f 141//7 135//7 60//7
f 10//7 59//7 12//7
f 12//9 61//9 16//9
f 72//5 172//5 59//5
f 26//3 7//3 73//3
f 6//6 54//6 13//6
f 50//3 1//3 55//3
f 127//5 131//5 52//5
f 159//5 128//5 68//5
f 69//3 19//3 51//3
f 80//2 22//2 99//2
f 79//1 1//1 84//1
f 84//1 71//1 90//1
f 2//2 80//2 51//2
f 23//4 30//4 76//4
f 82//4 30//4 81//4
f 51//2 83//2 126//2
f 113//86 25//86 119//86
f 29//4 24//4 81//4
f 21//4 23//4 79//4
f 78//4 25//4 80//4
f 71//1 84//1 163//1
f 88//3 86//3 94//3
f 89//28 88//28 95//28
f 87//1 79//1 90//1
f 3//1 21//1 86//1
f 89//1 71//1 88//1
f 88//1 52//1 86//1
f 86//29 85//29 92//29
f 90//30 89//30 96//30
f 91//31 85//31 93//31
f 93//5 87//5 96//5
f 97//32 98//32 103//32
f 98//3 100//3 104//3
f 97//2 22//2 98//2
f 4//2 53//2 98//2
f 101//2 70//2 102//2
f 53//2 70//2 100//2
f 101//33 102//33 107//33
f 105//34 99//34 103//34
f 102//5 99//5 108//5
f 100//35 101//35 106//35
f 77//87 24//87 120//87
f 120//37 114//37 119//37
f 56//68 135//68 118//68
f 263//39 264//39 118//39
f 57//70 7//70 116//70
f 109//41 110//41 116//41
f 24//88 8//88 114//88
f 111//43 112//43 114//43
f 57//70 116//70 136//70
f 258//45 116//45 257//45
f 77//87 120//87 7//87
f 109//47 120//47 110//47
f 56//68 118//68 8//68
f 118//49 117//49 111//49
f 232//1 228//1 196//1
f 216//2 164//2 199//2
f 197//3 215//3 126//3
f 227//50 225//50 122//50
f 214//5 158//5 199//5
f 198//5 123//5 200//5
f 223//50 226//50 129//50
f 196//3 125//3 201//3
f 200//6 208//6 131//6
f 224//50 229//50 133//50
f 219//3 168//3 203//3
f 205//5 218//5 139//5
f 134//7 142//7 139//7
f 130//62 177//62 189//62
f 207//52 211//52 143//52
f 205//7 207//7 140//7
f 134//7 202//7 142//7
f 145//53 208//53 153//53
f 138//6 204//6 148//6
f 130//6 138//6 146//6
f 142//54 150//54 144//54
f 206//55 210//55 142//55
f 148//56 156//56 146//56
f 209//57 213//57 148//57
f 214//15 269//15 158//15
f 225//63 271//63 157//63
f 215//17 267//17 160//17
f 262//89 265//89 158//89
f 134//50 170//50 166//50
f 123//50 161//50 130//50
f 158//50 167//50 124//50
f 231//2 222//2 216//2
f 198//1 127//1 217//1
f 170//50 177//50 173//50
f 171//62 182//62 139//62
f 221//5 178//5 218//5
f 220//3 174//3 219//3
f 230//50 176//50 229//50
f 230//50 223//50 176//50
f 201//3 132//3 220//3
f 221//5 204//5 178//5
f 177//50 130//50 175//50
f 177//51 170//51 178//51
f 180//20 184//20 182//20
f 171//51 170//51 182//51
f 134//62 181//62 170//62
f 134//51 139//51 181//51
f 183//21 182//21 187//21
f 181//22 183//22 185//22
f 181//23 185//23 180//23
f 190//24 191//24 194//24
f 178//51 191//51 177//51
f 130//51 189//51 138//51
f 178//51 138//51 191//51
f 189//25 190//25 193//25
f 188//26 192//26 191//26
f 189//27 193//27 188//27
f 137//5 204//5 179//5
f 176//3 129//3 220//3
f 176//3 220//3 169//3
f 179//5 221//5 172//5
f 226//1 161//1 235//1
f 231//2 250//2 227//2
f 260//90 267//90 157//90
f 264//91 269//91 159//91
f 147//57 155//57 209//57
f 141//55 149//55 206//55
f 204//6 137//6 209//6
f 146//53 154//53 208//53
f 202//7 135//7 206//7
f 139//7 144//7 205//7
f 144//52 152//52 207//52
f 140//5 172//5 205//5
f 169//3 219//3 133//3
f 130//6 146//6 200//6
f 129//3 121//3 201//3
f 127//5 198//5 131//5
f 159//5 214//5 128//5
f 122//3 157//3 197//3
f 227//2 247//2 162//2
f 226//1 232//1 121//1
f 232//1 238//1 217//1
f 122//2 197//2 227//2
f 165//50 223//50 175//50
f 173//50 175//50 229//50
f 197//2 126//2 231//2
f 265//92 271//92 167//92
f 173//50 229//50 166//50
f 161//50 226//50 165//50
f 162//50 167//50 227//50
f 217//1 163//1 232//1
f 236//3 242//3 234//3
f 237//64 243//64 236//64
f 226//1 235//1 232//1
f 123//1 234//1 161//1
f 198//1 217//1 236//1
f 123//1 198//1 234//1
f 234//65 240//65 233//65
f 238//31 244//31 237//31
f 235//30 233//30 241//30
f 238//5 235//5 244//5
f 245//35 251//35 246//35
f 246//3 252//3 248//3
f 124//2 162//2 246//2
f 124//2 246//2 199//2
f 231//2 216//2 250//2
f 199//2 248//2 216//2
f 249//34 255//34 250//34
f 245//33 247//33 251//33
f 250//5 256//5 247//5
f 248//32 254//32 249//32
f 266//93 166//93 272//93
f 265//67 266//67 271//67
f 263//94 135//94 270//94
f 263//69 270//69 264//69
f 259//95 133//95 268//95
f 259//71 268//71 260//71
f 261//96 134//96 266//96
f 261//73 266//73 262//73
f 203//70 136//70 268//70
f 267//75 268//75 257//75
f 224//66 133//66 272//66
f 271//77 272//77 260//77
f 202//68 134//68 270//68
f 270//79 261//79 269//79
usemtl Glass
f 64//7 15//7 16//7
f 153//6 155//6 67//6
f 38//19 40//19 41//19
f 48//19 47//19 46//19
f 66//6 67//6 18//6
f 149//7 64//7 65//7
f 210//7 211//7 152//7
f 213//6 155//6 153//6
f 187//51 186//51 184//51
f 194//51 195//51 192//51
f 156//6 213//6 212//6
f 149//7 151//7 211//7
f 65//7 64//7 16//7
f 66//6 153//6 67//6
f 39//19 38//19 41//19
f 49//19 48//19 46//19
f 17//6 66//6 18//6
f 151//7 149//7 65//7
f 150//7 210//7 152//7
f 212//6 213//6 153//6
f 185//51 187//51 184//51
f 193//51 194//51 192//51
f 154//6 156//6 212//6
f 210//7 149//7 211//7
usemtl HeadLight
f 103//2 107//2 108//2
f 104//2 106//2 107//2
f 256//2 255//2 251//2
f 255//2 254//2 252//2
f 105//2 103//2 108//2
f 103//2 104//2 107//2
f 253//2 256//2 251//2
f 251//2 255//2 252//2
usemtl RearLight
f 91//1 95//1 94//1
f 93//1 96//1 95//1
f 242//1 243//1 239//1
f 243//1 244//1 241//1
f 92//1 91//1 94//1
f 91//1 93//1 95//1
f 240//1 242//1 239//1
f 239//1 243//1 241//1
